<svg xmlns="http://www.w3.org/2000/svg" width="176.603" height="22.202" viewBox="0 0 176.603 22.202"><defs><style>.a{fill:#b98f60;}.b{fill:none;stroke:#b98f60;stroke-width:3px;}</style></defs><g transform="translate(-853.5 -2993)"><path class="a" d="M360.99,602.945a.869.869,0,0,1-.869-.869V600.2h24.827v1.873a.869.869,0,0,1-.869.869Zm19.972-4.165,6.054-8.933h3.89l-5.818,8.933Zm-1.437-8.154,4.171,0-5.2,8.155h-4.077Zm-13.074,8.153-5.221-8.155,4.2,0,5.319,8.154Zm-6.418,0-5.995-8.933h4.122l5.982,8.933Zm10.53-4.471,5.149-8.071,1.713,3.128-4.916,7.768Zm-3.268-4.935,5.149-8.071,1.713,3.127-4.916,7.769Z" transform="translate(569.188 2411.698)"/><line class="b" x2="68.444" transform="translate(961.659 3013.702)"/><line class="b" x2="68.444" transform="translate(853.5 3013.702)"/></g></svg>